# xmcd
#
# Track frame offsets:
#	150
#	13797
#	28760
#	42787
#	54332
#	74197
#
# Disc length: 1182 seconds
# Revision: 0
# Processed by: cddbd v1.5.2PL0 Copyright (c) Steve Scherf et al.
# Submitted via: dBpowerAMP V12.0
#
DISCID=4f049c06
DTITLE=Becky Dean - Becky Dean
DYEAR=1900
DGENRE=Country
TTITLE0=Stay With Me
TTITLE1=There's A Side Of My Heart
TTITLE2=I Flew Over Our House Last Night
TTITLE3=I Won't stand In Your Way
TTITLE4=Someone Like You
TTITLE5=I'll Set You Free
EXTD=
EXTT0=
EXTT1=
EXTT2=
EXTT3=
EXTT4=
EXTT5=
PLAYORDER=
